# xmcd
#
# Track frame offsets:
#	150
#	8967
#	16510
#	23960
#	32162
#	38625
#	46342
#	53840
#	60130
#	67970
#	83225
#	97985
#	110507
#	123872
#	139880
#
# Disc length: 2070 seconds
#
# Revision: 1
# Processed by: cddbd v1.5.2PL0 Copyright (c) Steve Scherf et al.
# Submitted via: audiograbber 1.83.01
#
DISCID=b108140f
DTITLE=яелпетийа йаи казйа [1994] CD1 - MINOS EMI
DYEAR=1994
DGENRE=
TTITLE0=PALIWSE TO SAKAKI MOY
TTITLE1=циати ле нупмгсес пяыи
TTITLE2=мувтес лацийес
TTITLE3=ахгмаиисса
TTITLE4=цуяма ломос
TTITLE5=йаме кицайи уполомг
TTITLE6=лпане тсижкийи
TTITLE7=де ле стежамымесаи
TTITLE8=аяалпас пеяма
TTITLE9=паяапомиаяийо лоу
TTITLE10=лийяос аяяабымиастгйа
TTITLE11=кица ьивоука
TTITLE12=лема ле кеме пеяийкг
TTITLE13=ти олояжг поу еисаи отам йкаис
TTITLE14=де ле йатакабе йамеис
EXTD=
EXTT0=
EXTT1=
EXTT2=
EXTT3=
EXTT4=
EXTT5=
EXTT6=
EXTT7=
EXTT8=
EXTT9=
EXTT10=
EXTT11=
EXTT12=
EXTT13=
EXTT14=
PLAYORDER=
